<svg id="Layer_1" data-name="Layer 1" xmlns="http://www.w3.org/2000/svg" viewBox="0 0 512 512"><defs><style>.cls-1{fill:#006c68;}</style></defs><path class="cls-1" d="M342,415.5a10,10,0,1,0,7.07,2.93A10.08,10.08,0,0,0,342,415.5Z"/><path class="cls-1" d="M322.25,232a213.8,213.8,0,0,1-27.2-104.23V20.64A20.66,20.66,0,0,0,274.41,0h-36.9a20.67,20.67,0,0,0-20.65,20.64V127.8a213.83,213.83,0,0,1-27.14,104.13l0,.08A233.76,233.76,0,0,0,160,345.88V483.05A29,29,0,0,0,189,512h134.1A29,29,0,0,0,352,483.05V461a10,10,0,0,0-20,0v22.05a9,9,0,0,1-8.95,8.95H189a9,9,0,0,1-8.95-8.95V345.88a213.8,213.8,0,0,1,27.14-104.13l.05-.08a233.94,233.94,0,0,0,28.43-90H276.3a234,234,0,0,0,28.5,90A213.8,213.8,0,0,1,332,346V383.7a10,10,0,1,0,20,0V346A233.87,233.87,0,0,0,322.25,232ZM236.86,20.64a.65.65,0,0,1,.65-.64h36.9a.64.64,0,0,1,.64.64V48H236.86Zm0,111.05c0-1.3,0-2.6,0-3.89V68h38.19v59.75c0,1.32,0,2.64,0,4Z"/><path class="cls-1" d="M210,309.27a10,10,0,0,0-10,10V448.13a10,10,0,0,0,10,10h92.1a10,10,0,0,0,10-10V319.27a10,10,0,0,0-10-10Zm82.1,128.86H220V329.27h72.1Z"/></svg>