<svg xmlns="http://www.w3.org/2000/svg" xmlns:xlink="http://www.w3.org/1999/xlink" width="42" height="42" viewBox="0 0 42 42"><defs><style>.a{fill:none;}.b{clip-path:url(#a);}.c{fill:#fde7db;}</style><clipPath id="a"><rect class="a" width="42" height="42" transform="translate(0 0)"/></clipPath></defs><g transform="translate(-3.81 -3.16)"><g class="b" transform="translate(3.81 3.16)"><path class="c" d="M192.075,68.379l-1.943.877A13.665,13.665,0,0,1,189,66.882a7.458,7.458,0,0,1-.468-2.941c.068-1.032.767-2.45,1.9-2.45h.021a1.524,1.524,0,0,1,1.069.518,2.234,2.234,0,0,1,.618,1.55,1.092,1.092,0,0,1-.371.852.405.405,0,0,1-.478-.015c-.063-.049-.208-.165-.063-.634a.692.692,0,1,0-1.323-.408,1.829,1.829,0,0,0,.524,2.122,1.777,1.777,0,0,0,2.122.079,2.433,2.433,0,0,0,.975-1.948,3.6,3.6,0,0,0-1.005-2.552,2.9,2.9,0,0,0-2.047-.947h-.033c-1.867,0-3.157,1.937-3.278,3.741a8.8,8.8,0,0,0,.543,3.492,14.742,14.742,0,0,0,1.165,2.478l-1.6.719c-.042-.208-.08-.426-.133-.63a8.785,8.785,0,0,0-1.485-3.206c-1.107-1.445-3.271-2.345-4.828-1.277a2.9,2.9,0,0,0-1.189,1.929,3.607,3.607,0,0,0,.579,2.68,2.428,2.428,0,0,0,1.891,1.08,1.75,1.75,0,0,0,1.719-1.241,1.822,1.822,0,0,0-.749-2.056.691.691,0,1,0-.872,1.072c.379.309.322.484.3.558a.405.405,0,0,1-.385.277h0a1.1,1.1,0,0,1-.782-.5,2.234,2.234,0,0,1-.335-1.635,1.539,1.539,0,0,1,.6-1.024c.944-.644,2.319.154,2.951.977a7.437,7.437,0,0,1,1.245,2.706c.069.277.128.571.181.868l-3.783,1.693a1.322,1.322,0,0,0-.728,1.574l3.559,12.087a6.729,6.729,0,0,0,1.124,2.294,7.045,7.045,0,0,0,4.733,2.635,5.671,5.671,0,0,1,4.572,3.268l.138.308a.691.691,0,0,0,.631.41h3.441a.691.691,0,0,0,.63-.976l-.714-1.583a5.613,5.613,0,0,1,.6-5.6,7.036,7.036,0,0,0,1.177-5.281,6.714,6.714,0,0,0-.96-2.363l-6.667-10.7a1.308,1.308,0,0,0-1.655-.508Zm-5.931,4.176a19.316,19.316,0,0,1,.038,2.234c-.02.5-.075,1-.132,1.518-.027.236-.053.471-.075.709a5.391,5.391,0,0,0,.347,2.77.691.691,0,1,0,1.255-.577,4.106,4.106,0,0,1-.223-2.063c.022-.23.048-.46.069-.691.058-.523.118-1.063.138-1.614a19.894,19.894,0,0,0-.085-2.884L189.6,71c.153.223.3.452.467.685.324.447.67.861,1.011,1.263l.447.535a4.084,4.084,0,0,1,.964,1.841.691.691,0,0,0,1.366-.217,5.419,5.419,0,0,0-1.253-2.5c-.152-.184-.3-.366-.457-.548-.335-.4-.657-.782-.95-1.188-.112-.152-.2-.3-.3-.447l1.7-.761,4.567,7.324a5.238,5.238,0,0,1-1.148-.16,4.821,4.821,0,0,0-5.724,2.569,3.462,3.462,0,0,1-4.209,1.89,7.439,7.439,0,0,0-1.2-.2L182.8,74.058Zm13.849,9.638a5.637,5.637,0,0,1-.944,4.233,7.076,7.076,0,0,0-.739,6.963l.277.612h-1.92a7.067,7.067,0,0,0-5.635-3.973,5.647,5.647,0,0,1-3.8-2.112,5.36,5.36,0,0,1-.887-1.828L185.3,82.539c.151.029.3.061.462.1a6.388,6.388,0,0,0,1.452.208,4.524,4.524,0,0,0,1.88-.431,4.675,4.675,0,0,0,2.391-2.345,3.462,3.462,0,0,1,4.208-1.886,5.074,5.074,0,0,0,2.27.121l1.256,2.01A5.373,5.373,0,0,1,200,82.191Zm0,0" transform="translate(-159.944 -53.75)"/></g><path class="c" d="M253.471,284.367a3.1,3.1,0,0,1-2.091-1.16,3.029,3.029,0,0,1-.456-.988.692.692,0,1,0-1.328.39,4.318,4.318,0,0,0,.691,1.452,4.49,4.49,0,0,0,3.029,1.683h.076a.691.691,0,0,0,.078-1.38Zm0,0" transform="translate(-218.305 -247.429)"/><path class="c" d="M24.756,31.729a3.42,3.42,0,0,0-1.684-2.822,1.06,1.06,0,0,1-.223-.137,3.2,3.2,0,0,1,.168-.393,3.685,3.685,0,0,0,.439-1.616,1.444,1.444,0,0,0-.589-1.237,1.653,1.653,0,0,0-.6-.26c.567-.83.943-1.8.29-2.45a5.167,5.167,0,0,0-.758-.581c-.3-.208-.868-.591-.888-.8,0-.049.046-.19.262-.407a3.388,3.388,0,0,0,1.212-2.83A2.345,2.345,0,0,0,21,16.458c-.207-.1-.5-.223-.834-.367-1.81-.762-5.181-2.178-5.709-5.353a10.283,10.283,0,0,0-4.386-6.651c-.223-.21-.573-.369-5.389-.223a.67.67,0,0,0-.124.029.754.754,0,0,0-.132.031A.692.692,0,0,0,4.313,4a.572.572,0,0,0-.112.074.648.648,0,0,0-.074.112.77.77,0,0,0-.07.112.706.706,0,0,0-.025.144.593.593,0,0,0-.022.112V44.8a.67.67,0,0,0,.031.163.805.805,0,0,0,.021.1.67.67,0,0,0,.13.2.16.16,0,0,0,.016.022.688.688,0,0,0,.494.208H4.71l5.742.063h.007a.692.692,0,0,0,.692-.64,11.23,11.23,0,0,1,3.785-8c2.895-.3,6.662-.939,8.21-1.971A3.519,3.519,0,0,0,24.756,31.729ZM22.381,33.79c-1.355.9-5.428,1.557-8.338,1.825L12.8,37.092a12.8,12.8,0,0,0-2.968,7.073h0l-4.439-.05V5.233c1.7-.042,3.433-.05,3.909.008a9.014,9.014,0,0,1,3.786,5.72c.654,3.927,4.627,5.6,6.537,6.4.306.128.564.236.753.335a1.039,1.039,0,0,1,.646.72,2.153,2.153,0,0,1-.828,1.631,1.9,1.9,0,0,0-.662,1.511c.082.858.861,1.388,1.488,1.814.181.123.367.249.491.355a5.577,5.577,0,0,1-1.318,1.849.691.691,0,0,0,.708,1.148,1.938,1.938,0,0,1,1.15-.084.3.3,0,0,1,.016.118,2.411,2.411,0,0,1-.308,1.026,1.523,1.523,0,0,0,.691,2.36,2.063,2.063,0,0,1,.926,1.675A2.144,2.144,0,0,1,22.381,33.79Z" transform="translate(-0.178 -0.575)"/></g></svg>