<svg xmlns="http://www.w3.org/2000/svg" width="17.153" height="42.548" viewBox="0 0 17.153 42.548"><defs><style>.a{fill:#3d2b56;}</style></defs><path class="a" d="M25.344,19.325,26.571.567A.533.533,0,0,0,26.04,0H9.951A.533.533,0,0,0,9.42.567L10.647,19.32a7.363,7.363,0,0,0,6.817,6.914V38.7a9.457,9.457,0,0,0-6.445,2.95.533.533,0,0,0,.385.9H24.481a.532.532,0,0,0,.385-.9A9.467,9.467,0,0,0,18.53,38.7V26.234A7.362,7.362,0,0,0,25.344,19.325ZM23.1,41.483H12.785A8.472,8.472,0,0,1,23.1,41.483ZM10.52,1.063H25.472L25.105,6.67h-.011l-.081,1.063h.024l-.754,11.525a6.3,6.3,0,0,1-12.573,0" transform="translate(-9.419)"/></svg>