<svg xmlns="http://www.w3.org/2000/svg" width="17.153" height="42.548" viewBox="0 0 17.153 42.548"><defs><style>.a{fill:#3d2b56;}.b{fill:#fef58a;}</style></defs><g transform="translate(0 0)"><path class="a" d="M22.344,19.326,23.571.567A.533.533,0,0,0,23.04,0H6.951A.533.533,0,0,0,6.42.567L7.647,19.321a7.364,7.364,0,0,0,6.817,6.914V38.7A9.467,9.467,0,0,0,8.019,41.65a.533.533,0,0,0,.385.9H21.481a.532.532,0,0,0,.385-.9A9.456,9.456,0,0,0,15.53,38.7V26.235a7.364,7.364,0,0,0,6.814-6.91ZM7.52,1.064H22.472l-.367,5.607A18.953,18.953,0,0,1,15.114,5.4a20.158,20.158,0,0,0-7.4-1.332ZM20.1,41.485H9.785A8.472,8.472,0,0,1,20.1,41.485ZM15,25.2a6.3,6.3,0,0,1-6.287-5.941L7.785,5.132A18.9,18.9,0,0,1,14.768,6.4a20,20,0,0,0,7.269,1.331L21.282,19.26A6.3,6.3,0,0,1,15,25.2Z" transform="translate(-6.419 0)"/><path class="b" d="M33.8,51.933l-.754,11.525a6.3,6.3,0,0,1-12.573,0L19.55,49.33A18.9,18.9,0,0,1,26.532,50.6,20,20,0,0,0,33.8,51.933Z" transform="translate(-18.184 -44.198)"/><path class="a" d="M43.107,78.675a2.444,2.444,0,1,0-2.443,2.443A2.444,2.444,0,0,0,43.107,78.675Zm-3.823,0a1.379,1.379,0,1,1,1.379,1.38A1.379,1.379,0,0,1,39.284,78.675Z" transform="translate(-34.912 -68.3)"/><path class="a" d="M92.224,114.8a2.444,2.444,0,1,0-2.444-2.443A2.444,2.444,0,0,0,92.224,114.8Zm0-3.822a1.379,1.379,0,1,1-1.38,1.379,1.379,1.379,0,0,1,1.38-1.379Z" transform="translate(-81.108 -98.476)"/><path class="a" d="M56.834,168.522a2.842,2.842,0,1,0-2.842,2.842A2.842,2.842,0,0,0,56.834,168.522ZM53.993,170.3a1.779,1.779,0,1,1,1.778-1.778A1.779,1.779,0,0,1,53.993,170.3Z" transform="translate(-46.497 -148.444)"/></g></svg>