<svg xmlns="http://www.w3.org/2000/svg" width="37.769" height="37.773" viewBox="0 0 37.769 37.773"><defs><style>.a{fill:#fde7da;}</style></defs><g transform="translate(-14.78 -12.738)"><path class="a" d="M172.27,120a6.639,6.639,0,1,0,6.639-6.639A6.639,6.639,0,0,0,172.27,120Zm11.8,0a5.164,5.164,0,1,1-5.164-5.164A5.164,5.164,0,0,1,184.072,120Z" transform="translate(-145.245 -92.798)"/><circle class="a" cx="0.738" cy="0.738" r="0.738" transform="translate(46.499 18.792)"/><path class="a" d="M33.664,50.512A18.9,18.9,0,0,0,49.817,21.83a.738.738,0,1,0-1.261.766,17.432,17.432,0,0,1-3.343,22.062,11.805,11.805,0,0,0-23.093,0,17.41,17.41,0,0,1,22.22-26.786.738.738,0,0,0,.905-1.166A18.886,18.886,0,1,0,33.664,50.512Zm0-13.72A10.278,10.278,0,0,1,43.9,45.718a17.432,17.432,0,0,1-20.465,0,10.277,10.277,0,0,1,10.232-8.926Z" transform="translate(0 0)"/></g></svg>