<svg xmlns="http://www.w3.org/2000/svg" width="59.071" height="59.078" viewBox="0 0 59.071 59.078"><defs><style>.a{fill:#3d2b56;}</style></defs><g transform="translate(-17 -12.715)"><path class="a" d="M174.52,123.743A10.383,10.383,0,1,0,184.9,113.36,10.383,10.383,0,0,0,174.52,123.743Zm18.459,0a8.077,8.077,0,1,1-8.076-8.076A8.077,8.077,0,0,1,192.979,123.743Z" transform="translate(-138.365 -88.406)"/><circle class="a" cx="1.154" cy="1.154" r="1.154" transform="translate(66.611 22.185)"/><path class="a" d="M46.537,71.793A29.551,29.551,0,0,0,71.8,26.937a1.154,1.154,0,1,0-1.973,1.2,27.259,27.259,0,0,1-5.229,34.5,18.463,18.463,0,0,0-36.115,0,27.229,27.229,0,0,1,34.75-41.891,1.154,1.154,0,0,0,1.415-1.824A29.537,29.537,0,1,0,46.537,71.793Zm0-21.458a16.073,16.073,0,0,1,16,13.96,27.263,27.263,0,0,1-32.006,0,16.072,16.072,0,0,1,16-13.96Z" transform="translate(0)"/></g></svg>