<svg xmlns="http://www.w3.org/2000/svg" width="37.502" height="33.263" viewBox="0 0 37.502 33.263"><defs><style>.a{fill:#fde7da;}</style></defs><g transform="translate(0 -28.929)"><path class="a" d="M88.067,211.79v17.471h-6.6V221.7a1.2,1.2,0,0,0-1.2-1.2H71.835a1.2,1.2,0,0,0-1.2,1.2v7.557H64.079V211.79h-2.4v18.67a1.2,1.2,0,0,0,1.2,1.2h8.955a1.2,1.2,0,0,0,1.2-1.2V222.9h6.037v7.557a1.2,1.2,0,0,0,1.2,1.2h9a1.2,1.2,0,0,0,1.2-1.2V211.79Z" transform="translate(-57.162 -169.467)"/><path class="a" d="M37.122,45.525,19.73,29.253a1.2,1.2,0,0,0-1.631-.007L.388,45.517a1.2,1.2,0,1,0,1.623,1.767L18.9,31.765l16.58,15.512a1.2,1.2,0,0,0,1.639-1.751Z" transform="translate(0)"/></g></svg>