<svg xmlns="http://www.w3.org/2000/svg" width="42.356" height="37.773" viewBox="0 0 42.356 37.773"><defs><style>.a{fill:#fde7da;}</style></defs><g transform="translate(0.004 -27.7)"><path class="a" d="M42.211,30.852l-3.383-3.044a.441.441,0,0,0-.281-.108H24.8a4.059,4.059,0,0,0-3.632,2.267A4.059,4.059,0,0,0,17.534,27.7H3.793a.414.414,0,0,0-.29.124L.137,30.852A.442.442,0,0,0,0,31.158V57.432a.421.421,0,0,0,.414.438H16.194a6.806,6.806,0,0,1,.265,1.87v1.018h-.472a.414.414,0,0,0,0,.827h.472a1.466,1.466,0,0,0,1.464,1.431h.405a2.876,2.876,0,0,0,5.692,0h.405a1.466,1.466,0,0,0,1.464-1.431h.472a.414.414,0,0,0,0-.827h-.472V59.74a7.33,7.33,0,0,1,.24-1.87H41.938a.414.414,0,0,0,.414-.414v-26.3A.414.414,0,0,0,42.211,30.852Zm-.687,25.554-2.556-2.746V29.04l2.556,2.308ZM30.34,28.527h3.383V32.92l-1.39-.687a.684.684,0,0,0-.6,0l-1.39.678V28.527Zm-5.534,0h4.707v2.846H23.821a.414.414,0,1,0,0,.827H29.5v.96a.662.662,0,0,0,.323.579.674.674,0,0,0,.662.033l1.539-.753c1.53.728,1.564.819,1.837.819a.662.662,0,0,0,.364-.108.681.681,0,0,0,.323-.579V32.2H35.9a.414.414,0,0,0,0-.827H34.542V28.527h3.59V53.411H28.784A8.6,8.6,0,0,0,21.579,40.82V31.745A3.234,3.234,0,0,1,24.805,28.527Zm2.159,26.092a7.55,7.55,0,0,0-1.886,4.707H23.134V51.368h.951a1.783,1.783,0,1,0-1.779-1.787v.951H20.049v-.96A1.779,1.779,0,1,0,18.27,51.36h.951v7.966H17.277a8.271,8.271,0,0,0-2.027-4.864,7.783,7.783,0,1,1,13.641-6.1A7.893,7.893,0,0,1,26.965,54.619Zm-6.916,4.707V51.368h2.258v7.958Zm-.827-8.785H18.27a.955.955,0,1,1,.951-.96Zm3.9,0v-.951a.951.951,0,1,1,.951.951Zm-2.366-18.8V40.82a8.474,8.474,0,0,0-5.328,2.192,8.608,8.608,0,0,0-1.878,10.407H4.207V28.527H17.542a3.216,3.216,0,0,1,3.218,3.218ZM3.379,29.04V53.659L.823,56.406V31.348Zm-2.019,28,2.614-2.8H14.043a12.739,12.739,0,0,1,1.853,2.8Zm19.813,7.6a2.052,2.052,0,0,1-2.01-1.63h4.02A2.068,2.068,0,0,1,21.174,64.645Zm3.888-3.094a.637.637,0,0,1-.637.637h-6.5a.637.637,0,0,1-.637-.637v-1.4h7.776ZM28.3,54.238H38.372l2.614,2.8H26.41a11.921,11.921,0,0,1,1.894-2.8Z"/><path class="a" d="M283.414,117.327h12.078a.414.414,0,1,0,0-.827H283.414a.414.414,0,1,0,0,.827Z" transform="translate(-259.593 -81.454)"/><path class="a" d="M283.414,161.727h12.078a.414.414,0,1,0,0-.827H283.414a.414.414,0,1,0,0,.827Z" transform="translate(-259.593 -122.181)"/><path class="a" d="M120.814,72.927h4.219a.414.414,0,0,0,0-.827h-4.219a.414.414,0,1,0,0,.827Z" transform="translate(-110.444 -40.727)"/><path class="a" d="M73.414,117.327H85.492a.414.414,0,0,0,0-.827H73.414a.414.414,0,1,0,0,.827Z" transform="translate(-66.965 -81.454)"/><path class="a" d="M73.414,161.727H85.492a.414.414,0,0,0,0-.827H73.414a.414.414,0,1,0,0,.827Z" transform="translate(-66.965 -122.181)"/><path class="a" d="M355.114,205.3h-6.7a.414.414,0,1,0,0,.827h6.7a.414.414,0,1,0,0-.827Z" transform="translate(-319.216 -162.908)"/><path class="a" d="M80.131,205.3H73.414a.414.414,0,1,0,0,.827h6.717a.414.414,0,1,0,0-.827Z" transform="translate(-66.965 -162.908)"/><path class="a" d="M376.762,249.7h-4.748a.414.414,0,0,0,0,.827h4.748a.414.414,0,1,0,0-.827Z" transform="translate(-340.863 -203.635)"/><path class="a" d="M78.162,249.7H73.414a.414.414,0,1,0,0,.827h4.748a.414.414,0,1,0,0-.827Z" transform="translate(-66.965 -203.635)"/><path class="a" d="M381.165,294.1h-4.351a.414.414,0,0,0,0,.827h4.351a.414.414,0,0,0,0-.827Z" transform="translate(-345.266 -244.362)"/><path class="a" d="M77.765,294.1H73.414a.414.414,0,0,0,0,.827h4.351a.414.414,0,0,0,0-.827Z" transform="translate(-66.965 -244.362)"/></g></svg>