<svg xmlns="http://www.w3.org/2000/svg" width="29.801" height="21.603" viewBox="0 0 29.801 21.603"><defs><style>.a{fill:#006c68;}</style></defs><g transform="translate(-6.525 -6.777)"><path class="a" d="M11.789,92.34a5.259,5.259,0,0,1-2.627-9.817l7.212-4.145a5.265,5.265,0,0,1,7.177,1.938,1.1,1.1,0,1,1-1.9,1.094,3.065,3.065,0,0,0-4.181-1.129l-7.216,4.146a3.062,3.062,0,1,0,3.051,5.31l7.212-4.146a1.1,1.1,0,0,1,1.094,1.9L14.4,91.639A5.222,5.222,0,0,1,11.789,92.34Z" transform="translate(0 -63.96)"/><path class="a" d="M140.312,21.44a5.273,5.273,0,0,1-4.566-2.644,1.1,1.1,0,0,1,1.9-1.094,3.065,3.065,0,0,0,4.181,1.129l7.212-4.144a3.062,3.062,0,1,0-3.052-5.31l-7.212,4.148a1.1,1.1,0,1,1-1.094-1.9L144.9,7.478a5.257,5.257,0,1,1,5.239,9.115l-7.213,4.145A5.225,5.225,0,0,1,140.312,21.44Z" transform="translate(-116.447 0)"/></g></svg>