<svg xmlns="http://www.w3.org/2000/svg" width="26.784" height="26.784" viewBox="0 0 26.784 26.784"><defs><style>.a{fill:#006c68;}</style></defs><g transform="translate(-15 -15)"><path class="a" d="M41.784,28.392V38.844a2.94,2.94,0,0,1-2.94,2.94H17.94A2.94,2.94,0,0,1,15,38.844h0V17.94A2.94,2.94,0,0,1,17.94,15H28.392a.98.98,0,1,1,0,1.96H17.94a.98.98,0,0,0-.98.98v20.9a.98.98,0,0,0,.98.98h20.9a.98.98,0,0,0,.98-.98V28.392a.98.98,0,1,1,1.96,0Z" transform="translate(0 0)"/><path class="a" d="M181.334,15.98v6.356a.98.98,0,1,1-1.96,0V18.348l-10.74,10.736a.982.982,0,0,1-1.388-1.388l10.74-10.736H174A.98.98,0,1,1,174,15h6.356a.969.969,0,0,1,.359.072,1.015,1.015,0,0,1,.621.908Z" transform="translate(-139.55 0)"/></g></svg>