<svg xmlns="http://www.w3.org/2000/svg" width="38.146" height="37.773" viewBox="0 0 38.146 37.773"><defs><style>.a{fill:#fde7da;}</style></defs><g transform="translate(0.049 -5.002)"><g transform="translate(-0.049 5.002)"><path class="a" d="M157.668,96.87a20.947,20.947,0,0,1-1.3-2.528.636.636,0,0,0-1.167.5,22.292,22.292,0,0,0,1.565,2.988v.008a21.792,21.792,0,0,0,2.044,2.818,1.893,1.893,0,0,0,1.451.661h14.345a1.9,1.9,0,0,0,1.445-.658,21.777,21.777,0,0,0,2.048-2.826c0-.007.005-.014.009-.021a23.814,23.814,0,0,0,2.186-4.545h0a23.354,23.354,0,0,0,.9-3.256,25.49,25.49,0,0,0,0-10.436,23.321,23.321,0,0,0-.9-3.255v0a23.878,23.878,0,0,0-2.2-4.578,21.922,21.922,0,0,0-2.04-2.822,1.906,1.906,0,0,0-1.45-.66H162.64a.636.636,0,0,0,0,1.271h11.965a.639.639,0,0,1,.481.208c.47.556.906,1.125,1.3,1.7H160.682a.638.638,0,0,0-.584.382c-.183.425-.359.861-.521,1.3a.636.636,0,0,0,1.192.438c.107-.288.218-.572.333-.855h3.149c-.063.387-.131.784-.191,1.2a.636.636,0,0,0,1.258.184c.07-.478.145-.939.224-1.381h3.786c.172.973.327,2.038.461,3.178h-4.545a.636.636,0,1,0,0,1.272h14c.219.66.4,1.291.545,1.907H165.844a.636.636,0,1,0,0,1.272h4.321a80.062,80.062,0,0,1,.007,8.9H164.7c-.109-1.989-.143-3.977-.1-5.919a.637.637,0,0,0-.623-.649.647.647,0,0,0-.649.623c-.039,1.951.006,3.949.113,5.945h-3.979a.636.636,0,1,0,0,1.272h20.333c-.149.616-.326,1.247-.545,1.907H158.025a.636.636,0,1,0,0,1.272h.686a28.307,28.307,0,0,0,1.026,3.178Zm17.42,2.966a.622.622,0,0,1-.478.212H160.263a.622.622,0,0,1-.478-.212,20.506,20.506,0,0,1-1.3-1.695h17.908a20.653,20.653,0,0,1-1.3,1.695ZM171.065,75.89c-.13-1.135-.281-2.2-.447-3.179h3.149a26.538,26.538,0,0,1,1.085,3.179Zm5.1,0a28.942,28.942,0,0,0-1.027-3.179H177.2a22.256,22.256,0,0,1,1.577,3.179ZM171.44,89.241a81.363,81.363,0,0,0,0-8.9h4.3a35.445,35.445,0,0,1,0,8.9Zm5.572,0a36.831,36.831,0,0,0,0-8.9h3.043a24.221,24.221,0,0,1,0,8.9Zm.191,7.629h-2.068a28.46,28.46,0,0,0,1.025-3.179h2.617A22.3,22.3,0,0,1,177.2,96.87Zm-3.433,0h-3.152c.17-.984.318-2.05.447-3.179h3.782a26.743,26.743,0,0,1-1.08,3.179Zm-3.979-3.179c-.133,1.135-.288,2.2-.461,3.179h-3.789c-.173-.974-.327-2.039-.461-3.179Zm-9.77,0H163.8c.13,1.135.281,2.2.447,3.179H161.1a26.621,26.621,0,0,1-1.08-3.179Z" transform="translate(-143.589 -63.547)"/><path class="a" d="M6.948,18.42a3.815,3.815,0,1,0-3.586,5.9A3.806,3.806,0,0,0,6.542,29.4a3.815,3.815,0,1,0,7.167,0,3.807,3.807,0,0,0,3.179-5.086,3.815,3.815,0,1,0-3.582-5.9,3.816,3.816,0,0,0-2.516-1.646,15.481,15.481,0,0,1,.493-2.93,2.617,2.617,0,0,0,.654.08,5.439,5.439,0,0,0,2.31-.675,5.277,5.277,0,0,0,2.626-2.371s.02-.042.021-.045a4.2,4.2,0,0,0,.288-1.49,5.449,5.449,0,0,1,.082-.738,1.99,1.99,0,0,1,.116-.356,4.648,4.648,0,0,1,.656-1.013c.183-.23.366-.457.577-.707a.969.969,0,0,0,.277-1.018c-.149-.36-.476-.531-1.021-.508l-.356.014a13.43,13.43,0,0,0-3.337.392l-.149.045A6.642,6.642,0,0,0,10.256,8.6a5.034,5.034,0,0,0-.587,3.556,2.533,2.533,0,0,0,.488.964c-.083.273-.158.545-.224.808A5.527,5.527,0,0,0,8.4,12.064a3.8,3.8,0,0,0-.925-1.937A4.08,4.08,0,0,0,5.253,8.534l-.039-.008a3.278,3.278,0,0,0-1.184.022,3.874,3.874,0,0,1-.522.055,1.175,1.175,0,0,1-.248-.024,3.334,3.334,0,0,1-.794-.3c-.194-.095-.381-.191-.6-.3a.852.852,0,0,0-.954-.033.831.831,0,0,0-.276.993L.7,9.192a10.1,10.1,0,0,0,.827,2.4l.058.105a5.1,5.1,0,0,0,2.968,2.316,4.66,4.66,0,0,0,1.284.187,3.353,3.353,0,0,0,1.507-.331,2.079,2.079,0,0,0,.636-.5,5.779,5.779,0,0,1,1.468,3.4,3.818,3.818,0,0,0-2.5,1.646Zm-.171-5.688a2.637,2.637,0,0,1-1.863.057A3.809,3.809,0,0,1,2.7,11.065l-.043-.075A6.91,6.91,0,0,1,2.1,9.514a4.117,4.117,0,0,0,.969.323,2.235,2.235,0,0,0,.447.039,4.774,4.774,0,0,0,.706-.069,2.161,2.161,0,0,1,.747-.037l.145-.619-.14.621a2.933,2.933,0,0,1,1.509,1.147c.053.064.134.168.224.291a6.184,6.184,0,0,0-1.667-.224.636.636,0,1,0,0,1.272,4.451,4.451,0,0,1,1.867.381A.88.88,0,0,1,6.777,12.732ZM1.227,20.524a2.543,2.543,0,1,1,4.619,1.445,3.792,3.792,0,0,0-1.687,1.055,2.573,2.573,0,0,1-.393.043A2.544,2.544,0,0,1,1.227,20.524Zm5.722,7.629a2.543,2.543,0,0,1-2.03-4.078.665.665,0,0,0,.048-.054,2.52,2.52,0,0,1,1.421-.894,2.565,2.565,0,0,1,1.118,0,2.523,2.523,0,0,1,1.422.89.537.537,0,0,0,.048.053,2.555,2.555,0,0,1,.517,1.54,2.517,2.517,0,0,1-.455,1.433,3.809,3.809,0,0,0-1.705,1.069,2.63,2.63,0,0,1-.381.041Zm3.178,5.086A2.544,2.544,0,1,1,12.67,30.7a2.544,2.544,0,0,1-2.544,2.543Zm3.179-5.086a2.619,2.619,0,0,1-.381-.041,3.809,3.809,0,0,0-1.706-1.069,2.517,2.517,0,0,1-.455-1.433,2.544,2.544,0,0,1,.516-1.535.665.665,0,0,0,.048-.054,2.52,2.52,0,0,1,1.421-.894,2.568,2.568,0,0,1,1.122,0,2.523,2.523,0,0,1,1.421.89.537.537,0,0,0,.048.053,2.544,2.544,0,0,1-2.029,4.079Zm3.179-10.172a2.543,2.543,0,1,1,0,5.087,2.582,2.582,0,0,1-.393-.044,3.788,3.788,0,0,0-1.683-1.055,2.529,2.529,0,0,1,2.08-3.988ZM11.378,9.2a5.35,5.35,0,0,1,3.029-2.533l.12-.036A10.828,10.828,0,0,1,17.156,6.3l-.118.149a5.811,5.811,0,0,0-.82,1.295s-.024.06-.026.064a3.161,3.161,0,0,0-.166.533,6.551,6.551,0,0,0-.107.917,3.153,3.153,0,0,1-.18,1.048l-.016.036a4.172,4.172,0,0,1-2.035,1.766,3.619,3.619,0,0,1-2,.515,6.176,6.176,0,0,1,3.137-3.6.636.636,0,0,0-.5-1.165,7.031,7.031,0,0,0-3.485,3.513A4.1,4.1,0,0,1,11.381,9.2Zm-1.251,8.782a2.529,2.529,0,0,1,2.08,3.988,3.782,3.782,0,0,0-1.687,1.055,2.489,2.489,0,0,1-.787,0,3.79,3.79,0,0,0-1.686-1.055,2.533,2.533,0,0,1,2.079-3.988Z" transform="translate(0.049 -5.002)"/><circle class="a" cx="0.636" cy="0.636" r="0.636" transform="translate(8.905 25.694)"/><circle class="a" cx="0.636" cy="0.636" r="0.636" transform="translate(5.726 20.608)"/><circle class="a" cx="0.636" cy="0.636" r="0.636" transform="translate(12.084 20.608)"/><circle class="a" cx="0.636" cy="0.636" r="0.636" transform="translate(8.905 15.522)"/><circle class="a" cx="0.636" cy="0.636" r="0.636" transform="translate(15.262 15.522)"/><circle class="a" cx="0.636" cy="0.636" r="0.636" transform="translate(2.547 15.522)"/></g></g></svg>