<svg xmlns="http://www.w3.org/2000/svg" width="37.773" height="37.773" viewBox="0 0 37.773 37.773"><defs><style>.a{fill:#fde7da;}</style></defs><path class="a" d="M23.294,169.443H22.6a.619.619,0,0,1-.583-.407c-.079-.2-.157-.4-.248-.593a.622.622,0,0,1,.126-.7l.493-.494a1.889,1.889,0,0,0,0-2.669L20.61,162.8a1.893,1.893,0,0,0-2.669,0l-.493.493a.622.622,0,0,1-.7.126c-.2-.088-.393-.171-.594-.252a.619.619,0,0,1-.412-.584v-.693A1.889,1.889,0,0,0,13.85,160H11.332a1.889,1.889,0,0,0-1.889,1.889v.693a.619.619,0,0,1-.407.583c-.2.079-.4.157-.593.248a.622.622,0,0,1-.7-.126l-.494-.493a1.893,1.893,0,0,0-2.669,0L2.8,164.578a1.893,1.893,0,0,0,0,2.669l.493.493a.619.619,0,0,1,.126.7q-.132.293-.249.594a.618.618,0,0,1-.587.406H1.889A1.889,1.889,0,0,0,0,171.332v2.518a1.889,1.889,0,0,0,1.889,1.889h.693a.619.619,0,0,1,.583.407c.079.2.157.4.248.593a.622.622,0,0,1-.126.7l-.493.494a1.893,1.893,0,0,0,0,2.669l1.779,1.779a1.893,1.893,0,0,0,2.669,0l.493-.493a.622.622,0,0,1,.7-.126c.2.088.393.171.594.252a.618.618,0,0,1,.412.584v.693a1.889,1.889,0,0,0,1.889,1.889H13.85a1.889,1.889,0,0,0,1.889-1.889V182.6a.619.619,0,0,1,.407-.583c.2-.079.4-.157.593-.248a.623.623,0,0,1,.7.126l.494.493a1.893,1.893,0,0,0,2.669,0l1.779-1.779a1.893,1.893,0,0,0,0-2.669l-.493-.493a.619.619,0,0,1-.126-.7c.088-.2.171-.393.252-.594a.619.619,0,0,1,.584-.412h.693a1.889,1.889,0,0,0,1.889-1.889v-2.518A1.889,1.889,0,0,0,23.294,169.443Zm.63,4.407a.63.63,0,0,1-.63.63H22.6a1.9,1.9,0,0,0-1.763,1.217c-.067.176-.139.35-.216.521A1.893,1.893,0,0,0,21,178.331l.492.493a.63.63,0,0,1,0,.89h0l-1.779,1.779a.63.63,0,0,1-.891,0L18.329,181a1.893,1.893,0,0,0-2.113-.378c-.17.079-.344.15-.519.217A1.893,1.893,0,0,0,14.48,182.6v.693a.63.63,0,0,1-.63.63H11.332a.63.63,0,0,1-.63-.63V182.6a1.9,1.9,0,0,0-1.217-1.763c-.176-.067-.35-.139-.521-.216A1.9,1.9,0,0,0,6.851,181l-.493.492a.63.63,0,0,1-.89,0h0l-1.78-1.777a.63.63,0,0,1,0-.89l.493-.493a1.9,1.9,0,0,0,.378-2.113c-.079-.171-.15-.345-.217-.519a1.893,1.893,0,0,0-1.761-1.219H1.889a.63.63,0,0,1-.63-.63v-2.518a.63.63,0,0,1,.63-.63h.693a1.9,1.9,0,0,0,1.763-1.217c.067-.176.139-.35.216-.521a1.894,1.894,0,0,0-.378-2.113l-.495-.493a.63.63,0,0,1,0-.89h0l1.779-1.779a.63.63,0,0,1,.89,0l.494.493a1.889,1.889,0,0,0,2.112.378c.171-.079.345-.15.519-.217a1.889,1.889,0,0,0,1.22-1.762v-.693a.63.63,0,0,1,.63-.63H13.85a.63.63,0,0,1,.63.63v.693a1.9,1.9,0,0,0,1.217,1.763c.176.067.35.139.521.216a1.893,1.893,0,0,0,2.113-.378l.493-.492a.63.63,0,0,1,.891,0l1.779,1.778a.63.63,0,0,1,0,.891l-.493.493a1.9,1.9,0,0,0-.378,2.113c.079.17.15.344.217.519A1.893,1.893,0,0,0,22.6,170.7h.693a.63.63,0,0,1,.63.63Z" transform="translate(0 -147.409)"/><path class="a" d="M99.19,253.414c-.006-.151-.017-.3-.035-.452s-.044-.321-.079-.478c-.022-.1-.051-.2-.079-.306-.035-.129-.075-.257-.119-.383-.031-.087-.063-.174-.1-.26a5.667,5.667,0,0,0-.278-.589c-.008-.014-.013-.03-.021-.045a5.574,5.574,0,0,0-.567-.825c-.018-.023-.039-.044-.058-.066q-.13-.157-.27-.3c-.049-.051-.1-.1-.152-.148s-.126-.116-.189-.172c-.079-.067-.157-.131-.236-.193l-.1-.079A5.626,5.626,0,0,0,93.536,248c-.063,0-.126.009-.189.012-.134,0-.269.012-.4.025-.071.008-.142.016-.214.026a5.769,5.769,0,0,0-.61.114,5.666,5.666,0,0,0,0,10.979.155.155,0,0,1,.031.006,5.867,5.867,0,0,0,.659.126c.147.018.294.022.441.029.1,0,.189.02.292.02.179,0,.365-.012.556-.031.02,0,.04-.006.063-.009.153-.017.308-.039.466-.071.063-.012.121-.028.182-.042.111-.026.221-.053.334-.087.088-.026.174-.057.26-.087s.176-.063.265-.1.164-.073.246-.111c.106-.048.211-.1.315-.153h0a7.45,7.45,0,0,0,1.613-1.165,1.959,1.959,0,0,0,.338-.413,6.708,6.708,0,0,0,.944-2.587c.017-.121.033-.243.043-.367s.016-.227.018-.341c0-.036,0-.07,0-.105A1.738,1.738,0,0,0,99.19,253.414Zm-1.254.409c0,.052,0,.1-.008.157-.011.153-.031.305-.057.458a4.418,4.418,0,0,1-2.21,3.083c-.079.041-.157.079-.232.115l-.052.025a4.541,4.541,0,0,1-1.148.347l-.084.013c-.079.011-.157.02-.236.028-.1.009-.2.014-.308.016h-.131a4.443,4.443,0,0,1-.445-.028l-.079-.009a4.736,4.736,0,0,1-.515-.1,4.407,4.407,0,0,1,0-8.538h0a4.564,4.564,0,0,1,1.11-.136,4.4,4.4,0,0,1,.538.036c.048.006.1.015.142.022.136.021.271.048.4.079l.129.034a4.455,4.455,0,0,1,.96.4c.049.028.1.058.144.088.1.063.2.126.29.2.051.037.1.073.152.113a4.638,4.638,0,0,1,.355.315c.044.045.085.1.129.142.072.079.142.157.21.244.046.058.091.119.135.18.063.091.126.185.183.281l.1.157a4.385,4.385,0,0,1,.216.461c.025.063.046.126.069.189.041.116.079.236.107.352.016.063.033.119.046.179a4.4,4.4,0,0,1,.079.516,1.025,1.025,0,0,0,.006.139A4.236,4.236,0,0,1,97.935,253.823Z" transform="translate(-80.945 -228.484)"/><path class="a" d="M116.284,13.221H114.3a.615.615,0,0,1-.587-.413,13.123,13.123,0,0,0-.708-1.707.615.615,0,0,1,.121-.708l1.4-1.405a1.889,1.889,0,0,0,0-2.67l-2.676-2.676a1.889,1.889,0,0,0-2.67,0l-1.4,1.4a.615.615,0,0,1-.708.122,13,13,0,0,0-1.708-.708.615.615,0,0,1-.417-.589V1.889A1.889,1.889,0,0,0,103.063,0H99.285A1.889,1.889,0,0,0,97.4,1.889v1.98a.615.615,0,0,1-.413.587,13.142,13.142,0,0,0-1.707.708.615.615,0,0,1-.708-.121l-1.408-1.4a1.893,1.893,0,0,0-2.67,0L87.819,6.316a1.889,1.889,0,0,0,0,2.67l2.064,2.068a.63.63,0,0,0,.892-.888L88.709,8.095a.63.63,0,0,1,0-.89l2.676-2.672a.63.63,0,0,1,.89,0l1.407,1.4A1.871,1.871,0,0,0,95.84,6.3a12.011,12.011,0,0,1,1.543-.641,1.873,1.873,0,0,0,1.272-1.786V1.889a.63.63,0,0,1,.63-.63h3.777a.63.63,0,0,1,.63.63v1.98a1.871,1.871,0,0,0,1.272,1.781,11.858,11.858,0,0,1,1.543.646,1.875,1.875,0,0,0,2.163-.356l1.407-1.407a.63.63,0,0,1,.89,0l2.672,2.676a.63.63,0,0,1,0,.889l-1.4,1.407a1.872,1.872,0,0,0-.355,2.163,11.9,11.9,0,0,1,.641,1.543A1.873,1.873,0,0,0,114.3,14.48h1.98a.63.63,0,0,1,.63.63v3.777a.63.63,0,0,1-.63.63H114.3a1.871,1.871,0,0,0-1.781,1.272,11.858,11.858,0,0,1-.642,1.543,1.872,1.872,0,0,0,.356,2.163l1.4,1.407a.63.63,0,0,1,0,.89l-2.676,2.672a.63.63,0,0,1-.889,0L108.006,27.4a.629.629,0,1,0-.9.876l.015.016,2.068,2.064a1.889,1.889,0,0,0,2.67,0l2.672-2.676a1.889,1.889,0,0,0,0-2.67l-1.4-1.4a.618.618,0,0,1-.122-.708,13,13,0,0,0,.708-1.708.615.615,0,0,1,.587-.416h1.982a1.889,1.889,0,0,0,1.889-1.889V15.109A1.889,1.889,0,0,0,116.284,13.221Z" transform="translate(-80.399)"/><path class="a" d="M199.874,114.441a8.194,8.194,0,0,0-11.574,0,.63.63,0,1,0,.891.891,6.925,6.925,0,1,1,9.859,9.728l-.066.065a.63.63,0,1,0,.875.906l.016-.015A8.194,8.194,0,0,0,199.874,114.441Z" transform="translate(-173.312 -103.23)"/></svg>